<?xml version="1.0" encoding="utf-8"?>
<!-- Generator: Adobe Illustrator 26.5.0, SVG Export Plug-In . SVG Version: 6.00 Build 0)  -->
<svg version="1.1" id="Layer_1" xmlns="http://www.w3.org/2000/svg" xmlns:xlink="http://www.w3.org/1999/xlink" x="0px" y="0px"
	 viewBox="0 0 1559 197.2" style="enable-background:new 0 0 1559 197.2;" xml:space="preserve">
<style type="text/css">
	.st0{fill:#F8F8F4;}
</style>
<g>
	<path class="st0" d="M213.9,197.2H21.4v-19.7H0V0h85.5v157.7h64.2V0h85.5v177.5h-21.4V197.2z"/>
	<path class="st0" d="M350.3,197.2h-85.5V0h85.5v19.7h21.4v19.7h21.4v19.7h21.4V0H500v197.2h-85.5V138h-21.4v-19.7h-21.4V98.6h-21.4
		V197.2z"/>
	<path class="st0" d="M722,197.2H529.5V0h128.3h21.4H722v19.7h21.4v19.7h21.4v118.3h-21.4v19.7H722V197.2z M657.8,39.4H615v118.3
		h42.8V138h21.4V59.2h-21.4V39.4z"/>
	<path class="st0" d="M815.6,177.5h-21.4V19.7h21.4V0h213.9v39.4H879.8v39.4H944v39.4h-64.2v39.4h149.7v39.4H815.6V177.5z"/>
	<path class="st0" d="M1144.5,197.2H1059V19.7h21.4V0h128.3h64.2v19.7h21.4v177.4h-85.5v-78.9h-64.2V197.2z M1144.5,78.9h64.2V39.4
		h-64.2V78.9z"/>
	<path class="st0" d="M1516.2,197.2h-192.5V0h128.3h21.4h42.8v19.7h21.4v19.7h21.4v118.3h-21.4v19.7h-21.4V197.2z M1452.1,39.4
		h-42.8v118.3h42.8V138h21.4V59.2h-21.4V39.4z"/>
</g>
</svg>
