<?xml version="1.0" encoding="utf-8"?>
<!-- Generator: Adobe Illustrator 26.5.0, SVG Export Plug-In . SVG Version: 6.00 Build 0)  -->
<svg version="1.1" id="Layer_2_00000163050133063670248880000009912290537813659297_"
	 xmlns="http://www.w3.org/2000/svg" xmlns:xlink="http://www.w3.org/1999/xlink" x="0px" y="0px" viewBox="0 0 504.5 612.7"
	 style="enable-background:new 0 0 504.5 612.7;" xml:space="preserve">
<style type="text/css">
	.st0{fill:#191917;}
	.st1{fill:#FF5277;}
	.st2{fill:#FFFFFF;}
</style>
<g>
	<polygon class="st0" points="467.9,71.7 467.9,71.7 467.9,71.7 467.9,36.5 432.8,36.5 432.8,36.5 432.8,36.5 432.8,0 396.3,0 
		359.7,0 324.6,0 288.1,0 251.6,0 216.4,0 179.9,0 143.4,0 108.2,0 71.7,0 71.7,36.5 71.7,36.5 71.7,36.5 35.2,36.5 35.2,71.7 
		35.2,71.7 35.2,71.7 0,71.7 0,108.2 0,144.7 0,179.9 0,216.4 0,252.9 0,288.1 0,324.6 0,361.1 0,396.3 0,432.8 35.2,432.8 
		35.2,432.8 35.2,432.8 35.2,469.3 35.2,504.5 35.2,541 71.7,541 71.7,541 71.7,541 71.7,577.5 108.2,577.5 108.2,577.5 
		108.2,577.5 108.2,612.7 143.4,612.7 179.9,612.7 216.4,612.7 251.6,612.7 288.1,612.7 324.6,612.7 359.7,612.7 396.3,612.7 
		432.8,612.7 432.8,577.5 432.8,577.5 432.8,577.5 467.9,577.5 467.9,541 467.9,504.5 467.9,469.3 467.9,432.8 467.9,432.8 
		467.9,432.8 504.5,432.8 504.5,396.3 504.5,361.1 504.5,324.6 504.5,288.1 504.5,252.9 504.5,216.4 504.5,179.9 504.5,144.7 
		504.5,108.2 504.5,71.7 	"/>
	<g>
		<g>
			<g>
				<rect x="214.6" y="251.3" class="st1" width="36.5" height="36.5"/>
				<rect x="395.4" y="251.3" class="st1" width="36.5" height="36.5"/>
			</g>
			<g>
				<g>
					<polygon class="st2" points="432.8,108.2 432.8,71.7 396.3,71.7 396.3,36.5 359.7,36.5 324.6,36.5 288.1,36.5 251.6,36.5 
						216.4,36.5 179.9,36.5 143.4,36.5 108.2,36.5 108.2,71.7 143.4,71.7 143.4,108.2 143.4,144.7 179.9,144.7 179.9,179.9 
						179.9,216.4 216.4,216.4 251.6,216.4 288.1,216.4 324.6,216.4 359.7,216.4 396.3,216.4 432.8,216.4 467.9,216.4 467.9,179.9 
						467.9,144.7 467.9,108.2 					"/>
					<rect x="324.6" y="288.1" class="st2" width="36.5" height="36.5"/>
					<polygon class="st2" points="396.3,396.3 432.8,396.3 432.8,361.1 467.9,361.1 467.9,324.6 467.9,288.1 432.8,288.1 
						432.8,324.6 396.3,324.6 359.7,324.6 359.7,361.1 359.7,396.3 324.6,396.3 288.1,396.3 288.1,361.1 288.1,324.6 251.6,324.6 
						216.4,324.6 179.9,324.6 179.9,288.1 143.4,288.1 143.4,324.6 143.4,361.1 179.9,361.1 216.4,361.1 216.4,396.3 216.4,432.8 
						251.6,432.8 251.6,469.3 288.1,469.3 324.6,469.3 359.7,469.3 396.3,469.3 396.3,432.8 					"/>
					<rect x="179.9" y="469.3" class="st2" width="36.5" height="36.5"/>
					<rect x="71.7" y="71.7" class="st2" width="36.5" height="36.5"/>
					<polygon class="st2" points="35.2,144.7 35.2,179.9 35.2,216.4 35.2,252.9 35.2,288.1 35.2,324.6 35.2,361.1 35.2,396.3 
						71.7,396.3 71.7,361.1 71.7,324.6 71.7,288.1 71.7,252.9 71.7,216.4 71.7,179.9 71.7,144.7 71.7,108.2 35.2,108.2 					"/>
					<polygon class="st2" points="71.7,469.3 71.7,504.5 108.2,504.5 108.2,469.3 108.2,432.8 108.2,396.3 71.7,396.3 71.7,432.8 
											"/>
					<rect x="108.2" y="504.5" class="st2" width="36.5" height="36.5"/>
					<polygon class="st2" points="179.9,577.5 216.4,577.5 251.6,577.5 288.1,577.5 324.6,577.5 359.7,577.5 396.3,577.5 396.3,541 
						432.8,541 432.8,504.5 432.8,469.3 396.3,469.3 396.3,504.5 359.7,504.5 324.6,504.5 288.1,504.5 251.6,504.5 216.4,504.5 
						216.4,541 179.9,541 143.4,541 143.4,577.5 					"/>
				</g>
			</g>
		</g>
	</g>
</g>
</svg>
