<?xml version="1.0" encoding="UTF-8"?><svg id="Layer_1" xmlns="http://www.w3.org/2000/svg" viewBox="0 0 40 50"><defs><style>.cls-1{fill:#ff5277;}.cls-2{fill:#ffffff;}</style></defs><polygon points="36.67 6.67 36.67 3.33 33.33 3.33 33.33 0 30 0 26.67 0 23.33 0 20 0 16.67 0 13.33 0 10 0 6.67 0 6.67 3.33 3.33 3.33 3.33 6.67 0 6.67 0 10 0 13.33 0 16.67 0 20 0 23.33 0 26.67 0 30 0 33.33 3.33 33.33 3.33 36.67 3.33 40 3.33 43.33 6.67 43.33 6.67 46.67 10 46.67 10 50 13.33 50 16.67 50 20 50 23.33 50 26.67 50 30 50 33.33 50 33.33 46.67 36.67 46.67 36.67 43.33 36.67 40 36.67 36.67 36.67 33.33 40 33.33 40 30 40 26.67 40 23.33 40 20 40 16.67 40 13.33 40 10 40 6.67 36.67 6.67"/><g><g><rect class="cls-1" x="16.67" y="20" width="3.33" height="3.33" transform="translate(36.67 43.33) rotate(-180)"/><rect class="cls-1" x="33.33" y="20" width="3.33" height="3.33" transform="translate(70 43.33) rotate(-180)"/></g><g><polygon class="cls-2" points="36.67 6.67 36.67 3.33 33.33 3.33 33.33 0 30 0 26.67 0 23.33 0 20 0 16.67 0 13.33 0 10 0 6.67 0 6.67 3.33 10 3.33 10 6.67 10 10 13.33 10 13.33 13.33 13.33 16.67 16.67 16.67 20 16.67 23.33 16.67 26.67 16.67 30 16.67 33.33 16.67 36.67 16.67 40 16.67 40 13.33 40 10 40 6.67 36.67 6.67"/><rect class="cls-2" x="26.67" y="23.33" width="3.33" height="3.33"/><polygon class="cls-2" points="33.33 33.33 36.67 33.33 36.67 30 40 30 40 26.67 40 23.33 36.67 23.33 36.67 26.67 33.33 26.67 30 26.67 30 30 30 33.33 26.67 33.33 23.33 33.33 23.33 30 23.33 26.67 20 26.67 16.67 26.67 13.33 26.67 13.33 23.33 10 23.33 10 26.67 10 30 13.33 30 16.67 30 16.67 33.33 16.67 36.67 20 36.67 20 40 23.33 40 26.67 40 30 40 33.33 40 33.33 36.67 33.33 33.33"/><rect class="cls-2" x="13.33" y="40" width="3.33" height="3.33"/><rect class="cls-2" x="3.33" y="3.33" width="3.33" height="3.33"/><polygon class="cls-2" points="0 10 0 13.33 0 16.67 0 20 0 23.33 0 26.67 0 30 0 33.33 3.33 33.33 3.33 30 3.33 26.67 3.33 23.33 3.33 20 3.33 16.67 3.33 13.33 3.33 10 3.33 6.67 0 6.67 0 10"/><polygon class="cls-2" points="3.33 40 3.33 43.33 6.67 43.33 6.67 40 6.67 36.67 6.67 33.33 3.33 33.33 3.33 36.67 3.33 40"/><rect class="cls-2" x="6.67" y="43.33" width="3.33" height="3.33"/><polygon class="cls-2" points="13.33 50 16.67 50 20 50 23.33 50 26.67 50 30 50 33.33 50 33.33 46.67 36.67 46.67 36.67 43.33 36.67 40 33.33 40 33.33 43.33 30 43.33 26.67 43.33 23.33 43.33 20 43.33 16.67 43.33 16.67 46.67 13.33 46.67 10 46.67 10 50 13.33 50"/></g></g></svg>